PathFileType  4	(X/Y/Z) C:\Users\antoi\Documents\MyRepositories\mobilecap\ResultsAnalysis
DataRate	CameraRate	NumFrames	NumMarkers	Units	OrigDataRate	OrigDataStartFrame	OrigNumFrames
100.0	100.0	5	51	mm	100.0	258	294
Frame#	Time	r_knee			r_shank_antsup			r_ankle			r_calc			r_5meta			r_toe			L_knee			L_shank_antsup			L_ankle			L_calc			L_5meta			L_toe			r_sh2			r_sh3			r_sh4			L_sh2			L_sh3			r_thigh1			r_thigh2			r_thigh3			r_thigh4			r_thigh5			L_thigh1			L_thigh2			L_thigh3			L_thigh4			r.ASIS			r.PSIS			L.ASIS			L.PSIS			C7			R_Shoulder			L_Shoulder			R_Sternum			L_Sternum			R_humerus			R_elbow_med			R_elbow_lat			R_forearm			R_wrist_radius			R_wrist_ulna			L_humerus			L_elbow_med			L_elbow_lat			L_forearm			L_wrist_radius			L_wrist_ulna			R_HJC			L_HJC			R_HJC_reg			L_HJC_reg			
		X1	Y1	Z1	X2	Y2	Z2	X3	Y3	Z3	X4	Y4	Z4	X5	Y5	Z5	X6	Y6	Z6	X7	Y7	Z7	X8	Y8	Z8	X9	Y9	Z9	X10	Y10	Z10	X11	Y11	Z11	X12	Y12	Z12	X13	Y13	Z13	X14	Y14	Z14	X15	Y15	Z15	X16	Y16	Z16	X17	Y17	Z17	X18	Y18	Z18	X19	Y19	Z19	X20	Y20	Z20	X21	Y21	Z21	X22	Y22	Z22	X23	Y23	Z23	X24	Y24	Z24	X25	Y25	Z25	X26	Y26	Z26	X27	Y27	Z27	X28	Y28	Z28	X29	Y29	Z29	X30	Y30	Z30	X31	Y31	Z31	X32	Y32	Z32	X33	Y33	Z33	X34	Y34	Z34	X35	Y35	Z35	X36	Y36	Z36	X37	Y37	Z37	X38	Y38	Z38	X39	Y39	Z39	X40	Y40	Z40	X41	Y41	Z41	X42	Y42	Z42	X43	Y43	Z43	X44	Y44	Z44	X45	Y45	Z45	X46	Y46	Z46	X47	Y47	Z47	X48	Y48	Z48	X49	Y49	Z49	X50	Y50	Z50	X51	Y51	Z51	

258	2.57000000	-182.31247	695.81328	-371.07342	-144.36838	589.16814	-360.63369	-209.87959	312.71605	-356.20149	-246.75461	317.69074	-418.39582	-166.00227	188.25301	-320.56915	-115.64840	177.99506	-349.49200	-204.87575	709.01588	-827.51279	-156.10645	604.74405	-815.42046	-254.69707	332.79572	-858.60481	-285.77156	334.68582	-803.79842	-208.59012	198.98352	-889.62836	-151.40819	189.55776	-854.91825	-147.98122	475.55366	-356.36168	-211.82945	590.52701	-326.82849	-227.62713	479.70373	-337.20131	-224.64336	638.46990	-864.76831	-240.68088	518.64155	-889.14197	-103.44533	997.74583	-414.15440	-95.44856	890.69665	-395.63656	-143.28500	868.92990	-352.20800	-209.95707	992.88670	-379.44424	-197.38546	879.70577	-357.96690	-153.72629	1004.46744	-799.36253	-133.47406	868.02469	-823.91751	-264.41286	995.85767	-805.03185	-242.56934	857.09318	-825.92690	-72.29807	1142.95282	-483.02202	-248.86960	1219.70881	-527.87578	-99.96656	1157.49317	-722.90637	-265.69099	1225.89579	-639.87443	-232.86536	1668.68548	-578.19269	-177.97461	1678.39674	-462.67136	-180.07191	1691.07732	-703.31220	-105.01944	1622.70593	-569.95969	-109.11955	1617.53698	-596.37924	-213.53133	1632.86349	-351.77940	-317.78964	1461.24941	-290.09556	-348.73970	1524.58634	-267.33426	-405.70486	1493.28561	-159.85665	-451.13615	1453.94209	-75.70420	-475.35580	1441.94703	-102.27216	-210.75511	1651.92010	-837.00374	-327.62378	1514.66800	-929.12798	-334.23630	1583.23423	-952.24378	-348.99516	1578.78160	-1051.03485	-393.94683	1532.00507	-1172.58485	-421.57404	1545.17098	-1159.55053	-174.74326	1089.17537	-499.51574	-192.03492	1095.47992	-687.99695	-156.16063	1090.73529	-507.49442	-179.83667	1099.44289	-665.15037	
259	2.58000000	-180.01820	675.95209	-370.79629	-142.71095	568.89329	-361.05510	-212.27442	293.07202	-356.17322	-250.05334	297.81549	-417.61804	-168.14642	168.68894	-320.39916	-118.20265	158.22167	-350.16526	-203.24776	689.13569	-827.69091	-154.76759	584.26940	-814.54259	-256.18688	313.21578	-857.63778	-287.89192	314.82041	-803.09314	-209.31635	180.18051	-890.11444	-152.35538	170.43993	-854.89959	-148.07332	455.38829	-356.77365	-209.72041	571.17986	-326.36908	-227.42098	460.69334	-336.79311	-222.10087	618.54364	-865.09188	-239.21326	499.07070	-889.30176	-101.77102	977.91042	-414.77156	-93.48539	870.82886	-396.10087	-140.32628	848.37644	-352.96652	-207.88269	973.01838	-378.85646	-195.19159	859.76263	-357.66552	-153.26009	984.86208	-799.21309	-132.35874	848.58995	-823.88156	-263.83359	975.93119	-805.93468	-241.52980	837.20818	-826.43500	-72.27829	1123.67007	-483.21060	-249.00432	1200.17764	-527.44904	-100.42905	1138.07166	-722.98040	-266.31511	1206.76839	-639.68885	-233.78703	1648.14877	-577.82636	-178.58221	1657.09265	-461.96587	-181.09017	1670.40143	-703.56075	-106.12789	1601.97503	-569.70254	-110.51150	1596.75429	-596.31587	-215.48225	1610.08874	-351.07438	-322.18530	1437.85809	-295.30477	-352.78552	1500.75447	-270.87364	-411.64969	1467.25142	-165.22211	-458.53521	1426.32095	-83.14363	-483.97968	1415.76836	-107.08769	-213.51508	1629.36720	-836.95930	-333.30223	1491.26470	-924.36324	-339.41872	1559.46663	-948.82754	-356.09593	1553.30760	-1047.13168	-403.84729	1504.98776	-1166.48834	-430.99207	1518.37929	-1153.29785	-174.79513	1069.81623	-499.43990	-192.53301	1076.15133	-687.87840	-155.93984	1070.92896	-507.59589	-180.22973	1080.17840	-665.08415	
260	2.59000000	-177.41734	655.10577	-370.54746	-140.99974	547.70385	-361.18809	-214.70261	272.72220	-356.03096	-253.11834	277.31538	-417.17255	-170.76652	148.24167	-320.11641	-121.06967	137.67178	-350.44365	-201.52620	668.43368	-827.80525	-153.26948	563.10796	-814.02486	-257.28952	292.93523	-856.63504	-289.29451	294.12779	-802.01014	-210.11058	160.67355	-890.76081	-153.33999	150.39933	-855.31743	-148.08464	434.38399	-357.06846	-207.71282	550.84531	-326.14281	-227.24127	440.83201	-336.49369	-219.66288	597.70955	-865.26132	-237.81252	478.47973	-889.07371	-100.30700	957.44857	-415.23451	-91.44181	850.24824	-396.73301	-137.57308	827.49062	-353.28891	-205.93275	952.15656	-378.23219	-192.74565	838.89603	-357.28080	-152.71989	964.50758	-799.14363	-131.00839	828.41217	-823.89161	-263.27727	955.07857	-806.88348	-240.21330	816.46043	-827.04095	-72.73177	1103.26944	-483.58592	-249.46059	1179.54884	-526.91146	-101.03480	1117.65329	-723.09058	-267.14877	1186.60966	-639.18871	-234.27961	1626.57158	-577.89250	-178.80318	1634.52631	-461.14741	-182.02650	1648.56938	-703.71793	-107.02068	1579.95346	-569.32439	-111.28000	1574.85170	-596.34962	-217.18623	1586.08173	-350.78456	-326.40923	1413.47316	-300.12095	-356.56475	1475.93394	-274.26329	-417.15776	1440.49376	-170.36149	-465.68385	1397.90471	-89.32414	-491.43962	1388.66331	-113.36017	-216.24090	1605.80498	-836.96330	-338.62424	1466.93757	-919.70618	-344.62908	1534.86559	-945.48147	-362.99389	1527.00331	-1043.30799	-413.42427	1476.73343	-1159.51242	-440.12541	1490.65852	-1146.52520	-175.14988	1049.29744	-499.41645	-193.33429	1055.86539	-687.80486	-156.09609	1050.07359	-507.96029	-180.86422	1059.96027	-665.17005	
261	2.60000000	-174.39648	633.48807	-370.24335	-139.09451	525.34195	-361.11773	-217.53189	251.73433	-355.95064	-256.69199	255.74777	-417.02652	-173.65666	127.40029	-319.55566	-124.05203	116.80771	-350.12727	-199.45909	646.91690	-828.02531	-151.39918	541.07279	-813.93483	-258.69735	271.87990	-855.69193	-290.59897	272.18509	-800.47570	-211.09942	140.31162	-891.21130	-154.24385	129.94031	-856.15483	-147.96100	412.04166	-357.23332	-205.63429	529.59109	-326.04475	-227.07108	420.22143	-336.18642	-217.44383	576.06588	-865.29129	-236.59242	456.70527	-888.35201	-99.16955	936.21526	-415.88200	-89.44222	829.00678	-397.48151	-135.11505	806.15922	-353.38100	-204.37770	930.08668	-377.81940	-190.17867	817.13747	-356.94325	-152.18354	943.41812	-799.16053	-129.41443	807.44273	-823.82476	-262.73423	933.24324	-807.63431	-238.52313	794.81715	-827.63542	-73.69220	1081.72883	-484.14047	-250.41974	1157.75028	-526.22415	-101.96500	1096.25092	-723.23829	-268.33856	1165.33904	-638.75146	-234.37342	1603.88106	-578.12447	-178.52810	1610.74900	-460.03711	-182.73152	1625.59847	-704.12725	-107.45830	1556.75626	-568.99394	-111.52275	1551.72026	-595.88688	-218.39819	1560.77784	-350.73376	-330.46537	1388.02947	-304.80043	-359.85224	1450.07132	-277.57004	-422.08240	1412.91798	-175.50610	-472.11627	1368.67213	-95.25492	-497.58615	1360.53528	-120.93711	-218.96973	1581.22665	-836.95030	-343.71818	1441.82114	-915.04482	-349.80193	1509.38784	-942.19143	-369.70331	1499.81534	-1039.47202	-422.70978	1447.61653	-1153.36712	-449.03425	1462.04705	-1140.04857	-175.92158	1027.58917	-499.51821	-194.50682	1034.55992	-687.85306	-156.79087	1028.13410	-508.62620	-181.76869	1038.71020	-665.48991	
262	2.61000000	-170.77927	611.01114	-370.00941	-136.90481	502.05413	-361.07402	-219.41748	229.81256	-356.16283	-259.39238	233.76757	-416.67184	-176.33736	106.05718	-318.44509	-127.01172	94.27225	-349.26260	-196.74934	624.66766	-828.52449	-149.19068	518.09635	-814.54711	-260.07070	249.80608	-854.69828	-291.97165	248.72548	-798.89365	-211.55420	119.08316	-891.99500	-154.21258	108.82013	-857.71335	-147.59313	388.86808	-357.36850	-203.28781	507.48367	-326.04883	-226.72256	398.80593	-336.23887	-215.39081	553.66471	-865.52397	-235.85426	434.06687	-887.73566	-98.58978	914.34144	-416.82296	-87.59092	807.25621	-398.23624	-132.58030	783.80849	-353.99915	-203.35485	906.89933	-377.47712	-187.66732	794.35005	-356.81164	-151.79534	921.60113	-799.12606	-127.52042	785.89547	-823.76306	-262.20101	910.37161	-808.12778	-236.49845	772.21310	-828.04095	-75.05692	1059.30013	-484.69402	-251.95109	1134.91261	-525.63643	-103.98563	1074.27928	-723.43413	-269.99075	1142.87277	-638.50314	-234.12412	1580.05424	-577.92906	-177.68148	1585.85527	-458.58166	-183.10885	1601.47455	-704.86712	-107.37885	1532.42534	-568.89702	-111.42017	1527.31176	-595.29400	-218.93903	1534.00416	-350.69604	-334.31360	1361.43412	-309.59360	-362.56297	1423.12450	-280.84262	-426.24830	1384.38421	-180.68074	-477.71845	1338.65848	-101.56279	-502.99914	1331.73119	-128.22892	-221.58134	1555.57274	-836.73857	-348.54365	1415.80523	-910.39057	-354.59286	1482.76632	-938.81402	-376.12729	1471.71685	-1035.69830	-431.64236	1417.88549	-1147.81760	-457.72037	1432.56179	-1133.65666	-177.10840	1004.91016	-499.75197	-196.25724	1012.34759	-688.01169	-158.21440	1005.44770	-509.28175	-183.25245	1016.49671	-665.93934	
